<svg id="Capa_1" data-name="Capa 1" xmlns="http://www.w3.org/2000/svg" viewBox="0 0 548.98 548.98"><defs><style>.cls-1{fill:#fff;}</style></defs><title>ICONOS CO2 TRASLATOR</title><path class="cls-1" d="M536.86,246.06C531.09,190.47,509,141,471.34,99c-41.12-45.79-92.57-74.26-152.92-84.62-6.77-1.16-13.82-2-20.64-2.79-3.2-.38-6.32-.75-9.43-1.15l-30.81.19c-3.06.43-6.12.82-9.18,1.21l-.2,0c-6.81.87-13.84,1.77-20.55,3.07-39.26,7.59-74.38,22.12-104.4,43.17s-55.55,49-76.28,83.28-32.74,73-35.52,114.73a26.35,26.35,0,0,1-.74,4.34l-.13.55.18,30.27.19.89c.26,1.24.52,2.52.73,3.9.6,3.93,1.11,7.87,1.6,11.68,1,7.78,2,15.79,3.74,23.34,14.27,63.8,47.7,115.67,99.37,154.18,63.83,47.58,135.83,63.38,214,47,63.28-13.3,115.48-46.81,155.16-99.6C526.74,377.75,544,315,536.86,246.06ZM455.44,453.94c-47.84,48.34-111.31,75.18-178.72,75.6h-1.6C134.56,529.54,20,415.86,19.51,275.78A254.12,254.12,0,0,1,93.64,95.07c47.87-48.36,111.44-75.23,179-75.64h1.59c67.62,0,131.42,26.31,179.74,74.14,48.57,48.07,75.43,111.86,75.65,179.63A254.21,254.21,0,0,1,455.44,453.94Z"/><path class="cls-1" d="M375.8,279.33h0l-6.2-5.4,7.56-6.85c.78-.7,1.49-1.34,2.19-2,10.61-9.85,16.11-20.95,16.81-33.92.83-15.39-4-29.49-13.69-39.69s-23.79-16-39.48-16.06l-6.4,0-11,.08-.05-7.31c0-1.86,0-3.64,0-5.36v-.11c0-3.68,0-7.15-.09-10.55,0-1.79-.06-3.58-.08-5.37-.06-5.27-.11-10.24-.64-15.13a3.81,3.81,0,0,0-3.94-3.3h0a3.74,3.74,0,0,0-3.9,3.23c-.44,6-.43,12.18-.42,18.19,0,2.44,0,4.85,0,7.25s0,4.83,0,7.36q0,1.77,0,3.57l0,7.3-85.3.52-.16-27c-.1-15-1.59-18.7-2.48-19.56a4.73,4.73,0,0,0-2.21-.27c-1.63,0-2.24.05-2.92,1.78-1.07,2.69-1.54,8.37-1.48,17.87l.17,27.51-12.9.08-12.64.07H194c-11.49.05-24.52.11-37.19.31-3.41.05-5.14,1.52-5.12,4.37,0,3.47,2.93,4.3,5.38,4.38,2.21.07,4.48,0,6.67,0h.67l2.44,0,31.45-.19L199.4,365l-35,.21h-2.11c-1.53,0-3,0-4.36.07-2.3.15-5.06,1-5.07,4.38,0,3.79,3.16,4.36,5,4.37,12.37,0,24.81-.05,36.84-.14l15-.1,13-.08.36,7c0,.73.07,1.39.11,2,.09,1.43.17,2.72.18,4.06,0,2.78,0,5.56,0,8.35v.22c0,5.84,0,11.88.21,17.76a15.73,15.73,0,0,0,1.12,5.87c1,2.17,3.94,1.62,4.28,1.56,1.8-.38,3.43-1.07,3.53-5.35.14-6.16.07-12.47,0-18.58q-.06-4.92-.08-9.84c0-1.55.11-3,.21-4.34,0-.56.08-1.07.11-1.57l.39-6.84,84.5-.52,0,7.31c0,1.91,0,3.78,0,5.64,0,4.11,0,8,.1,11.95,0,1.5.05,3,.07,4.5.07,5,.13,9.74.66,14.37.22,1.94,2.12,3,3.87,3a4.17,4.17,0,0,0,4-3.35,35.67,35.67,0,0,0,.48-6.49c0-7.13,0-14.13-.09-21.54l-.11-16.41,7.82.5c29.1,1.87,48-8.21,57.82-30.79C402.51,318.83,396.92,297.71,375.8,279.33ZM207.8,186l6.74-.55,1.27-.12.12,0c1.11-.11,2.24-.22,3.5-.23l30.93-.21c28.59-.2,61-.43,92.39-.53h.17c13.14,0,24.94,4.86,33.24,13.69a42.41,42.41,0,0,1,11.2,32.19,41.67,41.67,0,0,1-40.88,39.25c-16.11.34-33.74.57-55.49.7-12.55.08-25.05.12-37.38.15H251.7q-18,.06-36.08.15l-7.3.05ZM388,322.84a41.87,41.87,0,0,1-41.65,41c-15.74.28-32.74.47-53.48.6-13.13.08-26.19.12-39.06.17q-18.06.06-36.13.16h0a9.18,9.18,0,0,1-3.18-.61l-.38-.13-5.16-1.56-.51-82.43,6.92-.41,1.6-.11c1.23-.09,2.45-.18,3.74-.19l30.09-.2c30.19-.2,61.41-.41,92.16-.53h.21c13.05,0,24.83,4.72,33.19,13.32A41.92,41.92,0,0,1,388,322.84Z"/></svg>