<svg id="Capa_1" data-name="Capa 1" xmlns="http://www.w3.org/2000/svg" viewBox="0 0 548.98 548.98"><defs><style>.cls-1{fill:#fff;}</style></defs><title>ICONOS CO2 TRASLATOR</title><path class="cls-1" d="M148.92,379.44a45.53,45.53,0,0,0-45.52,45.3,45.56,45.56,0,0,0,45.31,45.54A45.51,45.51,0,0,0,194.25,425,45.71,45.71,0,0,0,148.92,379.44ZM148.73,463h-.11a38.21,38.21,0,0,1-37.94-38.5,38.17,38.17,0,0,1,38.06-37.8h0a38.15,38.15,0,1,1,0,76.3Z"/><rect class="cls-1" x="178.97" y="304.48" width="90.28" height="6.64"/><rect class="cls-1" x="120.39" y="304.61" width="31.88" height="6.56"/><rect class="cls-1" x="70.19" y="304.47" width="23.34" height="6.64"/><rect class="cls-1" x="70.15" y="337.96" width="23.52" height="6.55"/><rect class="cls-1" x="362.76" y="312.84" width="23.34" height="6.64"/><rect class="cls-1" x="145.61" y="421.61" width="6.63" height="6.62" rx="3.31" ry="3.31"/><rect class="cls-1" x="387.52" y="421.61" width="6.63" height="6.62" rx="3.31" ry="3.31"/><path class="cls-1" d="M523.25,279.1c-2.79-4.26-2.92-9.54-2.84-11.61a45.92,45.92,0,0,0-3.89-20.24c-4.87-11.5-9.55-23.28-14.07-34.68-2.21-5.55-4.41-11.11-6.65-16.65-6.89-17.11-19.16-25.44-37.49-25.46H427.47l-6.32-26.15H434c4.92,0,9.57,0,14.2,0,4.12-.05,5.13-1.1,5.17-5.36A28.76,28.76,0,0,0,428.07,110c-5.54-.65-11.23-1.15-16.73-1.63l-6-.53-22.61-2.06c-25.3-2.3-51.47-4.69-77.2-7-4.13-.37-8.3-.86-12.33-1.33-9.64-1.13-19.61-2.3-29.12-1.8-18.64,1-37.6,2.81-55.94,4.59-9.22.9-18.75,1.83-28.15,2.63a25,25,0,0,1-10.56-1.39c-13.77-5-27.73-10.26-41.22-15.31l-17-6.35c-3.59-1.34-5.62-1.29-6.32-.8s-1.51,2.46-1.52,6.45c0,4.68,0,9.36,0,14.05V109l-2.92,1.2c-.61.26-1.2.49-1.78.72-1.13.45-2.11.84-3,1.27-11.1,5.21-16.76,13.68-17.29,25.89-.12,2.59.2,4.41.88,5.13s2.52,1.12,5.16,1.13c6.46,0,12.92,0,19.56,0H119l-6.52,26.15H94.94c-10.53,0-20.94,0-31.34,0-11.54,0-19,6-21.49,17.25-1.56,7-3.06,13.84-4.13,20.67-1.13,7.13-2.73,14.22-4.27,21.09-3.16,14-6.15,27.28-5.58,41.19a8.6,8.6,0,0,1-.78,4.4q-6.75,13.14-13.57,26.25l-2.35,4.54V404.2c4.4,11.85,12.76,16.81,27,16.1,9.44-.47,19-.36,28.24-.25,4.18.05,8.5.1,12.73.1,5.78,0,6.26-.4,7.23-6a62.89,62.89,0,0,1,56.59-52.31c29.3-2.4,56.15,15.1,65.3,42.54a97.37,97.37,0,0,1,3.13,13.42c.16.84.31,1.7.48,2.56H333.6v.06h11.73l.24,4.38c1.7,30,23.73,44.59,43.48,45.48a44.23,44.23,0,0,0,30.37-9.8c11-8.76,16.68-20.47,17.45-35.81l.23-4.47h30.66q23.58,0,47.15,0c13.79,0,22-8.3,22.07-22.12,0-6.26-.08-12.65-.17-18.84-.2-13.25-.41-26.95.45-40.46C538.78,314.94,534.33,296,523.25,279.1Zm-25.94-60.18c2.37,6.39,5,12.85,7.51,19.1,2.08,5.14,4.23,10.46,6.25,15.74a38.7,38.7,0,0,1,1.81,7.72c.18,1.13.37,2.29.6,3.45l1.15,5.64H336.37V233c0-8.71,0-14.47,3.74-18.16s9.51-3.67,18.29-3.67h27.25c32.8,0,66.71,0,100.07-.1h.09C489.83,211.08,494.75,212,497.31,218.92ZM252.94,102.25l5,.28c2.6.15,5.19.27,7.76.4,5.47.26,11.14.54,16.7,1,31.9,2.82,64.33,5.78,95.69,8.64l20.82,1.89c9.21.84,18.73,1.7,28.1,2.72,8,.86,13.75,5.16,17.2,12.78l3,6.64H252.94Zm167,67.89H379.34l6.33-25.61h27.8Zm-41.85-25.52-6.32,25.61H168.4L162,144.62ZM219.56,106.79l25.67-2.37v32.23H219.56ZM111,87.56l28.89,10.8L163.29,105l-25.66,1.79L111,109.35ZM84.7,136.61,87.56,130c3.33-7.64,9.39-12.08,17.55-12.84,22.69-2.11,45.76-4.2,68.07-6.21l24.9-2.26,5.68-.53,8-.75v29.17Zm76.09,33.49H120.23l6.28-25.55h27.82ZM35.28,265.68c.43-11,2.73-21.53,4.95-31.72,1.34-6.12,2.72-12.46,3.65-18.73l.59-4h4.06c3.36,0,6.67,0,10,0,8.23,0,16-.08,24,.11,7.36.18,12.37,5.29,12.48,12.73.14,9.86.12,19.52.09,29.75q0,6,0,12.09v4.7H35.09Zm9.6,134.69c0,2.53,0,5.11,0,7.74v4.7h-4.7c-1,0-1.9,0-2.82.05s-1.86.05-2.81.05a37.28,37.28,0,0,1-3.78-.17c-7-.72-11.65-5.53-11.88-12.27-.21-5.91-.17-11.73-.12-17.89,0-2.57,0-5.18,0-7.85V370h4.71c1,0,2,0,2.89,0,2,0,3.88-.05,5.8.07,7.49.49,12.45,5.56,12.63,12.91C44.94,388.72,44.91,394.38,44.88,400.37Zm284,12.12H303v-32.8H295.8v32.88H219.28l-1.07-3.24c-12.59-38.36-37.65-56.69-74.52-54.45-32,1.94-53.58,20.26-64,54.44l-1,3.33H52.15V408c0-2.5,0-5,0-7.51,0-5.64,0-11.47,0-17.2-.07-7.24-2.66-12.55-7.71-15.8-3.11-2-7.34-3.12-11.44-4.2l-2.14-.57A14.41,14.41,0,0,0,27,362.6c-.94.06-2,.12-3.13.12H19.61l-.44-4.22c0-.42-.1-.83-.15-1.23a27.3,27.3,0,0,1-.28-3.27c0-4.93,0-9.85,0-14.77V333.8c0-25.93.23-26.86,12.44-49.74,1.54-2.88,5.33-5.86,9-5.87,79.36-.15,160-.13,238.07-.11h10.58a9.72,9.72,0,0,1,2.08.27c.27.06.58.13,1,.2l3.86.71V353h7V278.36h26.07ZM135.74,241c0-5.16,0-10.49,0-15.75.13-8.78,5.37-14,14-14,41-.06,84-.06,131.56,0,8.67,0,14.11,5.12,14.21,13.34.11,9.66.09,19.13.07,29.15,0,4,0,8.06,0,12.16v4.7H135.75V247.76C135.75,245.5,135.74,243.24,135.74,241ZM329,264.47a6.3,6.3,0,0,1-.48,2.32c0,.1-.08.21-.12.35l-1,3.3H302.94V228.13c0-16.76-7.45-24.24-24.13-24.24H253.33q-51,0-102,0c-14.75,0-22.89,8.11-22.91,22.84,0,8.85,0,17.71,0,26.69v17H102.31V256.06c0-8.57,0-17.14,0-25.71,0-.76,0-1.53,0-2.3a43.54,43.54,0,0,0-.28-6.88A20.27,20.27,0,0,0,81.9,203.92c-6.31-.1-12.73-.11-19-.11l-9.72,0a5.22,5.22,0,0,1-2.85-.9l-.4-.23L47,201l.62-3.33c.17-.92.33-1.86.49-2.82a67.41,67.41,0,0,1,1.5-7.37c1.64-5.87,6.12-9.41,12.32-9.72.92-.05,1.78,0,2.62,0h93.16q150.17,0,300.34,0c15,0,25.14,6.65,30.2,19.75l2.47,6.4H352.4c-15.45,0-23.29,7.91-23.31,23.49Q329.06,245.94,329,264.47Zm88.84,187.7A38.17,38.17,0,0,1,391.09,463h-.45A38.2,38.2,0,0,1,353.1,424.7a38.17,38.17,0,0,1,38.17-38h.29a38.13,38.13,0,0,1,26.29,65.45ZM524.71,312.08l-1,.2a9,9,0,0,1-1.66.24c-19.79.65-25.83,6.93-25.83,26.88v7.89c0,5.89,0,11.78,0,17.67.08,13.33,8.48,21.67,21.94,21.75h11.46v4.7c0,.95,0,1.87,0,2.76,0,2.07.07,4-.07,6.06-.51,7.48-5.78,12.53-13.1,12.56-19.31.08-38.58.07-57.21.06H438.17L436.76,411c-1.89-2.46-3.58-4.88-5.22-7.23-3.31-4.74-6.44-9.22-10.2-12.38-4.82-4.05-11.48-7.56-20.34-10.74-6-2.13-13.12-2-21.84.45-8.43,2.36-14.69,5.95-19.12,11a143.9,143.9,0,0,0-9.83,13.06c-1.47,2.11-3,4.29-4.63,6.55h-8.86V278.5l4.48-.21,1.44-.08c1.18-.08,2.4-.15,3.69-.15h39.86c39.46,0,80.27,0,120.4-.08h.06c3.84,0,8.59.83,11.38,7.17,2.05,4.65,4.37,9.19,6.83,14q1.57,3.06,3.16,6.22l2.76,5.53Zm5,7.78v59.56H525l-2.84,0-2.36,0c-1,0-2,0-3-.06-8.05-.4-13.11-5.59-13.21-13.56-.14-10.86-.14-21.77,0-32.44.1-8,5.18-13.14,13.25-13.52,1.75-.08,3.49-.07,5.33,0l2.82,0Z"/></svg>