<svg id="Capa_1" data-name="Capa 1" xmlns="http://www.w3.org/2000/svg" viewBox="0 0 548.98 548.98"><defs><style>.cls-1{fill:#fff;}</style></defs><title>ICONOS CO2 TRASLATOR</title><path class="cls-1" d="M517.46,433.88c-.78-.84-2.46-1.28-5-1.3-3.42,0-6.89,0-10.24,0H493V414.88c0-10.49,0-20.33,0-30.34,0-4.69-1.05-5.83-5.52-6.12-.8-.05-1.57-.15-2.22-.23l-5-.57.91-4.89c.38-2,.83-4,1.26-5.82a50.36,50.36,0,0,0,1.75-11.1,52.73,52.73,0,0,0-1.8-11.36c-.42-1.85-.86-3.76-1.22-5.69l-.94-5,5.25-.44c.45,0,1.07-.1,1.7-.12,11.84-.37,19.77-6.51,22.32-17.29,2.42-10.23-1.76-19.3-11.77-25.54-.75-.47-4.51-3-4.57-6.92C493,274.06,493,265,493,255.3V242.94H511.2c3.42,0,5.55-.44,6.33-1.29.56-.61,1.21-2.3,1.09-6.89a171.55,171.55,0,0,0-20.19-76.9C476.84,117.34,443.64,86,399.75,64.63,329.51,30.48,255.51,26.12,179.8,51.68,133.69,67.24,96.05,93.79,67.93,130.6,43.65,162.38,31,198,30.34,236.56c0,2.52.33,4.23,1.1,5.06s2.42,1.28,4.89,1.31c3.28,0,6.54,0,10,0H56v4.58c0,3.15,0,6.25,0,9.31,0,7.4-.1,14.38.14,21.41.23,6.41-1.9,10.53-7.12,13.77-7.65,4.77-11,12.11-9.86,21.83a21.28,21.28,0,0,0,15.91,18.47,45.73,45.73,0,0,0,6.32.95c1.21.13,2.47.26,3.79.43l6.33.85-3,5.84c-5.16,10.09-5.14,20.54.06,31.06l3,6.14L65,378.1c-8.59.66-8.93.69-8.93,9.37v45.1H43.29c-.56,0-1.08,0-1.6,0h-.91c-1.85,0-3.59,0-5.36,0-4.29.16-5.1,2.08-5,5.14a84.33,84.33,0,0,0,1.51,14.8c7.51,36.47,36.35,61,71.75,61,69.17.07,139.76.06,202,0h71.69c7,0,14,0,21,0h.68c16.06.06,32.66.11,49-.15,37.81-.59,70.14-34.54,70.61-74.13C518.67,436.6,518.28,434.76,517.46,433.88ZM38.72,233.6l.27-4.85a159.86,159.86,0,0,1,18.18-65.62c21.5-41,54.49-71.54,100.86-93.2C207,47,260.16,39.51,315.92,47.6,365,54.71,407.77,73.36,443.09,103s56.32,64.16,64.42,105.66c.85,4.39,1.39,8.71,1.95,13.29l0,.12c.25,2.06.51,4.15.81,6.29l.72,5.23Zm445.72,9.75v44.56H64.55V243.35ZM67,324.29a52.57,52.57,0,0,1-8.16-.13,13.23,13.23,0,0,1-11.63-14c.44-7,4.7-11.78,11.39-12.88a25.39,25.39,0,0,1,4.68-.19l1.36,0H486.78c9,.11,15.07,5.62,15,13.7a13.4,13.4,0,0,1-3.91,9.73c-2.85,2.76-6.83,4-11.54,3.69-16.81-1.24-31.12,5.24-43.77,19.84-6.5,7.5-15.75,16.14-29.82,16.36h-.41c-10.16,0-18.94-3.76-26.82-11.49-1.67-1.63-3.32-3.34-4.92-5-4.56-4.69-9.26-9.54-14.42-12.85-18.47-11.85-42.11-8.11-57.47,9.09l-.77.86a117,117,0,0,1-9.87,10.21,35.46,35.46,0,0,1-23.57,9.32c-8.61,0-16.85-3.29-23.83-9.51a106.49,106.49,0,0,1-9.54-9.91c-9.42-10.89-21.91-16.88-35.18-16.88h-.1c-13.28,0-25.77,6.07-35.16,17-8.23,9.59-17.52,19-32.45,19.13-10.26.08-19.26-3.73-26.8-11.25-1.39-1.38-2.76-2.79-4.14-4.2l.9-1h0l-1,1c-3.1-3.18-6.31-6.48-9.62-9.38C88.58,327.6,78.3,323.83,67,324.29Zm218.22,54,.06.64-1.75-.64-124.79,0,.29.1H130.21c-4.19,0-8.38.06-12.09.12s-7.62.12-11.38.12c-5.62,0-10.26-.14-14.59-.43-7.27-.5-13.6-5-16.94-12a23.94,23.94,0,0,1,1.15-22.67c1.47-2.36,3.59-5.13,7.06-5.54,2.52-.29,5,.77,7.34,3.17,1,1.05,2.18,2.05,3.4,3.1,1.42,1.24,2.89,2.51,4.28,4,13.71,14.4,15.25,15.39,33.1,21.19l12,0,1.21-.24c13.32-2.65,23.21-11.26,34-23.37,10.5-11.82,23.73-15.68,37.25-10.88,6.19,2.2,12.58,6.63,19.55,13.54l1.76,1.75c13,12.92,13,12.92,29.92,19.14l14.47.08,1.19-.24c13.75-2.83,23.44-12.68,33-23.39,10.42-11.72,23.66-15.6,37.27-10.93,6.51,2.23,13.41,6.95,18.95,12.95,10,10.85,19.15,18.64,31.29,21.38l9.5,2.15,7.05-1.95a55.14,55.14,0,0,0,29-19.33,49.6,49.6,0,0,1,6.39-6.27c1.23-1.06,2.4-2.07,3.47-3.12,2.14-2.12,4.41-3.05,6.73-2.76,3.25.39,5.22,2.92,6.42,4.8,4.74,7.38,5.42,15,2,22.55-3.66,8.21-10.28,12.85-18.63,13.05-8,.2-16.07.16-23.9.12h-.29c-3.37,0-6.74,0-10.11,0h-33.6l.52-.14ZM64.53,387.6H484.42v44.56H64.53ZM509.59,447c-3,19.36-12.21,34.79-27.37,45.87-10.81,7.9-23.52,11.9-37.8,11.9-31.94,0-64.22,0-97.23,0H251.27c-48.1,0-97.83,0-147.16,0-30.71,0-56.27-20.75-63.59-51.55-.33-1.39-.54-2.72-.76-4.12-.1-.63-.2-1.28-.32-2l-.95-5.39H510.41Z"/><path class="cls-1" d="M360.22,116.85v-1.36l0,1.36a4.31,4.31,0,0,0-4.05,4.47,4.48,4.48,0,0,0,1.31,3.08,4.13,4.13,0,0,0,2.91,1.22,3.93,3.93,0,0,0,2.77-1.37,4.45,4.45,0,0,0,1.19-3.11A4.31,4.31,0,0,0,360.22,116.85Z"/><path class="cls-1" d="M145.89,171h-.06a4,4,0,0,0-2.82,1.31,4.42,4.42,0,0,0-1.21,3.11,4.51,4.51,0,0,0,1.28,3.1,3.8,3.8,0,0,0,2.82,1.25,4,4,0,0,0,2.86-1.33,4.48,4.48,0,0,0,1.22-3.1A4.31,4.31,0,0,0,145.89,171Z"/><path class="cls-1" d="M231.67,171h-.06a3.9,3.9,0,0,0-2.8,1.25,4.43,4.43,0,0,0-1.28,3.09,4.3,4.3,0,0,0,4.05,4.42h0a3.9,3.9,0,0,0,2.81-1.25,4.46,4.46,0,0,0,.08-6.19A4,4,0,0,0,231.67,171Z"/><path class="cls-1" d="M317.4,171h0a4.39,4.39,0,0,0-.05,8.76,3.78,3.78,0,0,0,2.84-1.24,4.45,4.45,0,0,0,.1-6.18A3.92,3.92,0,0,0,317.4,171Z"/><path class="cls-1" d="M403.09,171h0a4.39,4.39,0,0,0,0,8.76,3.93,3.93,0,0,0,2.85-1.28,4.52,4.52,0,0,0,1.26-3.09A4.32,4.32,0,0,0,403.09,171Z"/><path class="cls-1" d="M274.49,116.85h0a4.31,4.31,0,0,0-4.08,4.39,4.49,4.49,0,0,0,1.26,3.1,3.76,3.76,0,0,0,5.68,0,4.47,4.47,0,0,0,1.25-3.09,4.53,4.53,0,0,0-1.26-3.1A4,4,0,0,0,274.49,116.85Z"/><path class="cls-1" d="M188.8,116.85h-.05a3.92,3.92,0,0,0-2.81,1.25,4.47,4.47,0,0,0-1.28,3.09,4.32,4.32,0,0,0,4.05,4.43,4.1,4.1,0,0,0,2.85-1.26,4.52,4.52,0,0,0,1.29-3.09,4.46,4.46,0,0,0-1.22-3.1A4,4,0,0,0,188.8,116.85Z"/></svg>