<svg id="Capa_1" data-name="Capa 1" xmlns="http://www.w3.org/2000/svg" viewBox="0 0 548.98 548.98"><defs><style>.cls-1{fill:#fff;stroke:#fff;stroke-miterlimit:10;stroke-width:5px;}</style></defs><title>iphone-12-12--12--</title><path class="cls-1" d="M395.79,425.05h0c0-11.16,0-317.47,0-328.63,0-14.35.27-28.71-.29-43-.53-13.57-13.34-25.09-26.9-25.09l-186.17,0c-17.32,0-29.4,12-29.4,29.31V443.85q0,25.47,0,50.94a25.32,25.32,0,0,0,2.11,10.34,26.45,26.45,0,0,0,7.7,10.67,6.11,6.11,0,0,0,.66.62,28.34,28.34,0,0,0,18,6.17q52.6-.08,105.2,0c26.48,0,53-.36,79.44.13A29,29,0,0,0,395.93,493C395.57,470.36,395.75,447.71,395.79,425.05ZM391,507.5c-5.81,9.82-14.7,13.87-25.86,13.86q-57.75-.08-115.5,0-33.06,0-66.11,0c-6.87,0-13.16-1.59-18.54-5.75-.39-.3-.78-.61-1.16-.94l-.25-.22a29,29,0,0,1-7.73-11.81A35.13,35.13,0,0,1,154.53,492q.1-23.94,0-47.89-.17-102.13-.33-204.26c0-11.1.31-22.2.32-33.3q0-74.59,0-149.18a29.51,29.51,0,0,1,.45-6c2.86-13.44,13.56-21.79,28.12-21.85q31.08-.14,62.15-.09,60.2,0,120.38,0c16.79,0,28.72,11.67,28.73,28.46V425.06h0q0,34.41,0,68.81A26.17,26.17,0,0,1,391,507.5Z"/><path class="cls-1" d="M200,101.2a18.72,18.72,0,1,0,18.63,18.71A18.65,18.65,0,0,0,200,101.2Zm-.48,36.16a17.55,17.55,0,0,1-17.15-18.13c.22-9.34,8.47-17.09,17.94-16.86a17.5,17.5,0,0,1-.79,35Z"/><path class="cls-1" d="M237.43,79.06a18.73,18.73,0,1,0,18.66,18.81A18.87,18.87,0,0,0,237.43,79.06Zm-.21,36.26a17.46,17.46,0,1,1,17.57-17.48A17.53,17.53,0,0,1,237.22,115.32Z"/><path class="cls-1" d="M199.46,96.24a18.63,18.63,0,0,0,19.16-18.41,18.78,18.78,0,0,0-37.55-.48A18.62,18.62,0,0,0,199.46,96.24Zm.32-36.11a17.47,17.47,0,1,1-17.42,17.32A17.61,17.61,0,0,1,199.78,60.13Z"/><path class="cls-1" d="M265.45,90.46c0-6.22,0-12.44,0-18.66,0-.43,0-.87,0-1.3v-.12a2.46,2.46,0,0,0,0-.28c0-.37,0-.73-.05-1.1a25.29,25.29,0,0,0-.52-4.07l-.09-.36C262.4,54.4,254,47.81,242.63,47.8H194.74c-14.92,0-23.91,9-23.92,24q0,10.52,0,21,0,9.69,0,19.38c0,4.71,0,9.42,0,14.12,0,.44,0,.87,0,1.3v.13a2.83,2.83,0,0,0,0,.29c0,.36,0,.72.05,1.09a25.29,25.29,0,0,0,.52,4.07c0,.12.06.24.08.36,2.33,10.17,10.72,16.76,22.1,16.77h47.89c14.92,0,23.91-9,23.92-24q0-14.35,0-28.72Zm-1.67,39.12c-.13,10.18-8.45,18.38-18.47,19.15H242.8c-16.57,0-33.14.09-49.71,0a21.29,21.29,0,0,1-15.77-6.87l-.12-.14c-.27-.3-.51-.61-.76-.93s-.42-.56-.62-.85l-.35-.52c-.23-.37-.45-.73-.66-1.11s-.28-.52-.41-.79-.22-.45-.32-.68a18.59,18.59,0,0,1-1.59-7.33q-.37-30.07,0-60.15s0-.1,0-.16h0v-.62c.13-10.18,8.45-18.39,18.47-19.16h2.51c16.57,0,33.14-.08,49.71,0A21.32,21.32,0,0,1,259,56.3l.12.14c.27.3.51.62.76.94s.42.56.62.85l.35.52c.23.36.45.73.66,1.1s.28.53.41.8.22.45.32.67a18.68,18.68,0,0,1,1.59,7.34Q264.17,99.11,263.78,129.58Z"/></svg>