<svg id="Capa_1" data-name="Capa 1" xmlns="http://www.w3.org/2000/svg" viewBox="0 0 548.98 548.98"><defs><style>.cls-1{fill:#fff;}</style></defs><title>ICONOS CO2 TRASLATOR</title><path class="cls-1" d="M471.4,282c-3.46-1.72-7.07-3.26-10.88-4.89-1.86-.79-3.76-1.61-5.73-2.48l-7-3.09,8.7-5.14c1.25-.74,2.32-1.38,3.4-2L474.59,256c10.81-6.22,22-12.65,32.94-19,1.36-.8,3.06-2,3.37-3.4s-.68-3.19-1.56-4.48c-4.43-6.48-11-10.72-19.48-12.62-16.4-3.65-33.09-1.23-52.54,7.61-5.25,2.39-10.46,5.35-15.49,8.22-2.34,1.33-4.75,2.7-7.17,4l-2.24,1.21-1.87-1.42a4.38,4.38,0,0,1-1.59-1.65l-2.07-3.89-.4-.75c-8.81-16.65-18.72-28.15-31.21-36.19-10.46-6.74-19.75-8.77-29.24-6.4-3.08.78-5,1.82-5.61,3s-.25,3.39,1,6.33q4.71,11,9.43,21.91,4.8,11.17,9.61,22.36a25.36,25.36,0,0,1,1,2.9c.13.44.27.91.44,1.42l2.2,6.87-7-1.87c-34.31-9.21-64-6.16-90.9,9.34l-3.94,2.27L235.86,195.5l8.48,3.34,2.21.86c1.32.51,2.41.93,3.47,1.39l19.07,8.22q15.72,6.78,31.44,13.53c2.65,1.14,4.59,1.49,5.61,1s2-2.21,2.9-5c2.8-9.06,1.81-18.46-3-28.73-6.17-13.14-16.32-24.42-31.94-35.52-.88-.63-1.74-1.29-2.88-2.17l-2.06-1.59-9.26-7.07H303.3q33.07,0,66.15,0c3.55,0,4.87-.62,5.36-1.14s1.05-1.94.83-5.6c-.39-6.46-2.74-12.57-7.18-18.69-6.26-8.61-15-15.41-26.65-20.77C317.69,86.49,291.75,83,262.5,87c-6.73.92-13.32,2.48-20.29,4.13-3.14.75-6.39,1.52-9.65,2.22L225.3,95l3.48-8.65c.53-1.33,1.06-2.67,1.63-4q6.38-14.85,12.77-29.71l13.08-30.44c2.17-5.07,2.09-7.18,1.63-8.07s-2.19-2.22-7.76-3.42c-11.79-2.54-23.3.22-36.19,8.7-16.52,10.86-29.48,26.43-40.8,49-.7,1.41-1.39,2.83-2.1,4.32L168,79.08l-3.8-2.67L162,74.87c-1.27-.9-2.37-1.68-3.49-2.43-27.27-18.21-52.06-26.41-78-25.76C62.8,47.12,50.62,52.62,42.17,64c-1.69,2.29-2.46,4.11-2.22,5.27s1.67,2.53,4.15,4L70.84,88.64l16.39,9.44,19.84,11.46,17.5,10.11-7.85,2.91-1.9.68c-.93.33-1.67.58-2.28.87-3.88,1.85-7.87,3.64-11.72,5.37-8.75,3.93-17.79,8-26,12.9-17.63,10.52-30.59,24.27-38.52,40.87-5,10.56-6.09,20.48-3.23,30.32.9,3.09,2,5,3.13,5.54s3.39.12,6.42-1.22l33.13-14.65,48.32-21.35c1.29-.57,2.54-1,4-1.59l2.24-.85,7.45-2.89-2.94,10c-.39,1.3-.7,2.36-1,3.43-5.69,20.81-6.77,38-3.43,54.13C134.05,261.75,141,272.3,153,278.32c3.38,1.69,5,1.7,5.69,1.41s1.92-1.45,3.24-5.16q6.39-18,12.74-36,4.46-12.63,8.93-25.25c.34-1,.73-1.88,1.23-3,.27-.63.58-1.36.94-2.25l4.07-9.84,3.31,10.12a1392.67,1392.67,0,0,1,64.74,318.72l.36,4.27H254l-5.11,0h-4.64c-2,0-3.89,0-5.81.05-1.48,0-4.94.45-5,3.81a3.42,3.42,0,0,0,.92,2.62,5.69,5.69,0,0,0,4.12,1.4c42.59.05,87.07.05,132.2,0a5.89,5.89,0,0,0,4.16-1.29,3.66,3.66,0,0,0,.91-2.69c0-1.14-.05-3.8-5.32-3.87-3.4-.05-6.76,0-10.32,0l-4.78,0H351l.41-4.32a808.13,808.13,0,0,1,38.86-181.91l3.39-10,4,9.83c.33.81.59,1.42.79,1.91.37.9.59,1.43.78,2q2.56,7.23,5.11,14.47,5.19,14.75,10.44,29.46c.58,1.65,1.57,3.72,2.9,4.28s3.57-.23,5.19-1c5.44-2.56,9.66-6.74,12.92-12.76,5.26-9.74,7.31-20.83,6.27-33.9-.42-5.3-1.25-10.55-2.13-16.11-.4-2.54-.8-5.11-1.18-7.72l-1-6.79,6.35,2.59,2,.79c1.39.56,2.69,1.08,4,1.66l23,10.19,34.46,15.23c2.69,1.18,4.68,1.53,5.78,1s2.12-2.32,2.93-5.21c2.72-9.75.86-19.2-5.85-29.75C501.78,301.62,489,290.77,471.4,282Zm1.69-59.13c9-.74,16.36.73,23.13,4.62l5.93,3.4-5.92,3.42-5.52,3.2c-5.76,3.34-11.2,6.5-16.81,9.53-2.65,1.44-5.71.18-7.54-.57a5.39,5.39,0,0,0-4.6,0,1.41,1.41,0,0,0-.72,1.22c-.52,7.85-5.84,10.5-9.73,12.43-.43.21-.86.42-1.29.65l-2.82,1.46-2-2.45c-6.13-7.42-6.95-6.95-8.59-6-1.83,1-2.66,1.52.48,10.16l1.75,4.82-46.09,4,4.9-6.93c.29-.42.6-.89.93-1.39a39,39,0,0,1,3.24-4.42C421.57,237.65,445.56,225.15,473.09,222.91ZM347.83,191.4l8.33,2.75c1.28.43,2.47.78,3.58,1.1a34.51,34.51,0,0,1,6.64,2.42c19.84,10.45,29.92,28.47,36.47,43,1.11,2.47.24,5.86-1.25,7.71-3.19,4-6.45,7.83-9.89,11.91q-1.74,2-3.52,4.16l-2.64,3.13-12.88-11.72,6.24-3.22c6.64-3.39,7.41-4.42,5.88-7.9-.55-1.25-1-2.33-10.22.18l-3.29.9Zm-77.25,75.27c8.82-6.3,19.24-10.23,32.78-12.36,21.5-3.4,41.58-1,59.68,7.18,6,2.73,13.76,7,19.94,16.28l4.09,6.12h-7.36l-6.73,0c-6.58,0-12.81,0-19-.14-3.06-.09-5.24-2.8-6.29-4.11a5.58,5.58,0,0,0-4.18-2.31,1.74,1.74,0,0,0-1.48.92A11.11,11.11,0,0,1,331.85,284c-1,0-1.92-.07-2.75-.14a22.24,22.24,0,0,0-2.49-.13l-3.52.1-.49-3.48c-1.32-9.43-2.82-9.35-4.71-9.24s-3.3.18-4.15,9.25l-.33,3.56h-3.59l-8,0c-9,0-18.3.07-27.5-.26-5.1-.18-7.29-8.2-7.31-8.28C266.09,272,268.5,268.16,270.58,266.67ZM301,349.49c.55,2.26,1.38,3.77,2.34,4.25s2.93.25,5.34-.77c7.23-3.05,14.56-6.21,21.65-9.27l11.05-4.76c1-.43,2-.84,2.91-1.18l9-3.62L314.73,446.08,274.45,292.29h60l-7.65,6.86c-.45.4-.86.78-1.24,1.13-.83.76-1.57,1.43-2.33,2.06-10.14,8.48-20.81,19.23-23.11,34.74A33.27,33.27,0,0,0,301,349.49ZM256.13,96.06c27.77-5.26,54.3-2.86,78.85,7.14,11.51,4.68,19.7,10.45,25.79,18.16a47.82,47.82,0,0,1,3.57,5.45c.53.88,1.08,1.82,1.7,2.81l3.79,6H292.92l-.7-3.06a29.9,29.9,0,0,1-.52-6.4c0-2.32,0-5.21-.92-6.08a4.57,4.57,0,0,0-3-.67c-3.45,0-4,.55-4,7.6a43.07,43.07,0,0,1-.21,5.19l-.41,3.48H259.57l-.8-2.89c-1.34-4.85-3-5.27-4.64-5.22s-3.28.42-4.47,5l-.76,3H203.81l-4.61-5.13,2.28-2.62c1.1-1.27,2.15-2.58,3.26-4a64.18,64.18,0,0,1,8.24-9C223.83,105.54,237.54,99.58,256.13,96.06ZM176.58,80c10.14-23.49,22.56-40.07,39.08-52.18,6.31-4.63,15.18-10,27.88-10.07l6-.05L219.34,88.13l-3.6-1.49-2.61-1.11c-1.74-.75-3.38-1.45-5-2-2.93-1.06-4.9-.38-5.87,2-.31.78-1.27,3.15,2.84,5.19,1.44.72,3,1.4,4.94,2.27l3.7,1.66,5,2.28L200.9,115.78,193.44,107c-5.59-6.59-10.87-12.82-16.13-19.25C175.58,85.59,175.64,82.13,176.58,80Zm-52.76,26.41-2.13,2.45-2.82-1.62-3.3-1.9c-3.23-1.85-6.57-3.77-9.81-5.75-1.66-1-3.74-3.71-3.15-6.52,1-4.77-.61-5.2-1.3-5.38-1.33-.35-3.47.13-5.54.59l-.38.08-.07,5.31-45-26L53.76,64c5.85-6.06,15.75-9.45,27.9-9.54,20.31-.15,40.47,5.64,61.62,17.7,17.49,10,31,21.73,41.23,36,1.53,2.13,2.9,4.34,4.23,6.48.6,1,1.2,1.93,1.82,2.88l6.48,10.1-11.21-4.3c-15.82-6.07-32.09-6-44.5-5.34a13.51,13.51,0,0,1-5.51-1.13c-.63-.22-1.23-.44-1.8-.6l-3.9-1.08,1.19-3.87a32.15,32.15,0,0,1,2.91-6.19c1.18-2.11,2.65-4.74,2.29-6-.18-.64-1.09-1.44-2.48-2.2-2.88-1.56-3.5-1.41-6.72,4.17A32.87,32.87,0,0,1,123.82,106.37ZM125,172.86l-2.75-5.71c-.76-1.58-1.5-3.13-2.26-4.66-2.28-4.57-4.71-3.58-5.51-3.25-2.42,1-3,3.09-1.77,6.25.58,1.45,1.21,2.88,1.93,4.53.36.82.74,1.68,1.13,2.6l1.55,3.57-22.24,9.89-1.89-2.4c-3.53-4.47-5.16-3.62-6.47-3-1.48.77-3,1.92-1.68,5.92L86.11,190l-46,20.35-.39-5.6c-.68-9.86,2.87-17.33,6.44-23.35,8.07-13.6,19.92-25,36.22-34.76,26-15.65,50.86-22.42,75.9-20.72,6.78.46,13.31,2.53,19.63,4.54,1,.31,2,.63,3,.93a21.89,21.89,0,0,1,6.68,4c.88.67,1.78,1.36,2.73,2l5.92,4Zm54.55,14.43c-1.18-.25-2.36-.56-3.5-.86-2.59-.68-5.82-1.53-7-.79-.57.35-1.07,1.39-1.4,2.92-.59,2.77-.19,3.49,5.74,5.56,1.39.48,2.83,1,4.22,1.62l3.23,1.5-1.17,3.37c-.38,1.11-.75,2.21-1.12,3.32-1,3-2,6.08-3.32,9.08a6.86,6.86,0,0,1-4,3.42c-.26.12-.65.29-.77.37-.82.6-1.69,1.13-2.53,1.65a16.08,16.08,0,0,0-3,2.13A18.15,18.15,0,0,0,166,223.3a30.74,30.74,0,0,1,1.25,3.12,7.67,7.67,0,0,0,.33.81,7.48,7.48,0,0,1,.69,5.44c-2.8,8.36-5.79,16.82-9,25.79l-5.58,15.86-4.32-7.1c-1-1.59-1.91-3-2.82-4.43a55.62,55.62,0,0,1-4.9-8.52c-5.66-13.2-6.93-27.74-3.9-44.45,1.88-10.31,5.13-20.41,8.27-30.18l1-3c1.17-3.65,4.75-6.63,7.71-8.2,3.82-2,7.71-3.64,11.83-5.36,1.65-.68,3.32-1.37,5-2.11l3.77-1.63,11.26,29.37ZM266.34,531l-.32-3.59C254.3,395,227.53,274.67,184.2,159.6l-1.27-3.37,3.25-1.56,1.84-.9c1.5-.73,3-1.49,4.66-2.2s3.14-1.33,4.79-2l2.28-.92,3.12-1.27,1.74,2.88c.56.93,1.07,1.88,1.57,2.81,3.07,5.69,4,6.29,7.43,4.92,1.27-.5,2.57-1,.45-8.46L213,145.82l3.69-1.13c11-3.37,33,0,58.38,20.74,18.19,14.82,28.35,31.24,27.17,43.93l-.5,5.38-11.82-5.06-14.16-6.08c-4.81-2.07-9.61-4.15-14.5-6.28l-9.87-4.27.69-3.17a35.49,35.49,0,0,1,1.72-5.16c2.36-6,2.05-6.59-1.17-7.87-3-1.17-3.65-.91-6.51,5.41-.7,1.54-1.42,3.12-2.3,4.65l-2.25,3.88L238,188.06c-1.07-.83-2.08-1.66-3.05-2.47a33.61,33.61,0,0,0-5.77-4.19c-2.27-1.17-4.84-1.75-6.38-1.43-1.8.36-1.29,3.19-1.27,3.31a26.19,26.19,0,0,0,2.09,5.7l.12.25a1145.59,1145.59,0,0,1,84.8,279.82c2.07,12.2,3.73,24.64,5.33,36.67.68,5.11,1.35,10.21,2.07,15.32.18,1.34.23,2.61.28,4,0,.59,0,1.2.08,1.84l.24,4.16ZM396.76,304.68C369,374.16,351.05,449.1,343.38,527.4L343,531H325.22l-1.37-10.46q-1.39-10.61-2.8-21.29c-.1-.77-.18-1.54-.27-2.31a33.74,33.74,0,0,0-.77-5c-4.14-15.56.06-29.77,4.13-43.51.93-3.17,1.91-6.45,2.74-9.65,9.89-38.09,23.53-75.76,41.71-115.18l.35-.77c.31-.66.62-1.33.91-2,1-2.32,1.63-5.36-1-6.68-.84-.42-3.38-1.69-6.15,3.47a36.15,36.15,0,0,1-2.09,3.28c-.36.52-.74,1.08-1.15,1.7L356,327.75l-3.24-5.23c-5.06-8.14-6.29-7.59-8-6.82s-3,1.37-.7,9.69l.93,3.31-40.91,17.72,3.35-8.75c.5-1.28.89-2.46,1.28-3.61a31.17,31.17,0,0,1,2.78-6.56c10.21-16.55,25.56-28,46.91-35.12,9.31-3.08,21.6-.61,36.53,7.37l3.11,1.66Zm35.77,65a48.49,48.49,0,0,1-3,8.55c-.48,1.14-1,2.28-1.4,3.43L427,384.7l-7.07-1.24-.77-2.16c-.6-1.69-1.21-3.36-1.81-5-1.64-4.5-3.33-9.15-4.77-13.85a11.77,11.77,0,0,1,1.05-8.48,5.53,5.53,0,0,0,.64-4.32,3.55,3.55,0,0,0-2.07-2.11c-6.72-3-7.33-4.27-8.44-12l-.44-3.1,2.93-1.13c5.77-2.22,6.46-3.33,5.84-6-.37-1.6-.88-3.8-7.29-2.55l-7.08,1.37,7.47-18.74,3.27.72c8.21,1.83,18.06,5.69,21.43,19.51S435.9,354.36,432.53,369.67Zm72.83-30.15-2.21-1-5.59-2.45c-5.42-2.36-11-4.8-16.48-7.44-2.13-1-3.69-3.34-4.65-6.85a4.86,4.86,0,0,0-2.36-3.13,3.51,3.51,0,0,0-2.91-.13c-7.49,2.82-8.74,2.4-16.22-1.69L452,315.24l1.12-3.16c.16-.46.33-.93.51-1.4,2.29-6.23,2.11-7.29-1.51-8.69-1.49-.58-2.4-.93-7.14,7.07l-1.79,3-47.08-20.85-.85-7.56,3.27-.88c1.69-.45,3.38-1,5.17-1.6,4.08-1.35,8.3-2.74,12.79-2.92,34.3-1.39,62.69,11.13,84.32,37.13,2.89,3.47,4.77,7.54,6.59,11.47.8,1.74,1.56,3.38,2.4,4.95l1.51,2.85Z"/></svg>